<svg id="Capa_1" enable-background="new 0 0 512 512" height="512" viewBox="0 0 512 512" width="512" xmlns="http://www.w3.org/2000/svg"><g><g><path d="m256 512c-3-2.24-195-57.346-195-265.547v-231.438c16.786 13.413 37.403 51.196 87.422 51.196 55.681 0 83.096-46.178 107.578-66.211 37.702 38.106 59.504 66.211 107.578 66.211 49.814 0 70.833-37.941 87.422-51.196v231.438c0 208.133-191.998 263.306-195 265.547z" fill="#f3f5f9"/></g><g><path d="m451 246.453v-231.438c-16.589 13.255-37.61 51.196-87.422 51.196-48.076 0-69.877-28.105-107.578-66.211v512c3.003-2.241 195-57.413 195-265.547z" fill="#cfd7e6"/></g><g id="Lightning_protection_1_"><g><path d="m374.799 125.911c-71.096 5.099-110.698-36-118.799-41.4-.3-.3-.3-.599-.601-.599-13.799 8.699-47.399 47.098-118.198 41.999l-16.201-1.2v121.883c0 150 132.001 199.2 135 201.601 135.601-60.601 135-187.202 135-201.601v-121.883z" fill="#4d5e80"/></g></g><path d="m391 124.711v121.883c0 14.399.601 141-135 201.601v-363.685c8.101 5.4 47.703 46.5 118.799 41.4z" fill="#3d4b66"/><g><path d="m269.242 373.367-24.053-72.173h-71.924l69.492-162.173 24.053 72.173h71.924z" fill="#fff159"/></g><g><path d="m256 178.755v154.878l13.242 39.734 69.492-162.173h-71.923z" fill="#ffdf80"/></g></g></svg>